<svg width="149" height="41" fill="none" xmlns="http://www.w3.org/2000/svg"><path d="M9.36 36.48c-2.133 0-3.973-.36-5.52-1.08-1.547-.72-2.747-1.76-3.6-3.12l4.28-4.08c1.227 1.973 2.867 2.96 4.92 2.96 1.253 0 2.267-.347 3.04-1.04.773-.72 1.307-1.827 1.6-3.32l3.48-17.6h-9.8L8.8 4h16.24l-4.52 22.48c-.693 3.573-1.947 6.133-3.76 7.68-1.813 1.547-4.28 2.32-7.4 2.32zm25.28-4.16c-2.16 0-4.066-.4-5.72-1.2-1.626-.8-2.893-1.92-3.8-3.36-.88-1.467-1.32-3.16-1.32-5.08 0-2.373.56-4.507 1.68-6.4 1.12-1.893 2.667-3.387 4.64-4.48 1.974-1.093 4.2-1.64 6.68-1.64 2.187 0 4.094.4 5.72 1.2 1.627.8 2.88 1.933 3.76 3.4.907 1.44 1.36 3.12 1.36 5.04 0 2.373-.56 4.507-1.68 6.4-1.093 1.893-2.64 3.387-4.64 4.48-1.973 1.093-4.2 1.64-6.68 1.64zm.4-5.16c1.2 0 2.28-.293 3.24-.88.96-.613 1.707-1.453 2.24-2.52.534-1.067.8-2.293.8-3.68 0-1.467-.426-2.627-1.28-3.48-.853-.853-2.053-1.28-3.6-1.28-1.226 0-2.32.307-3.28.92-.96.587-1.706 1.413-2.24 2.48-.533 1.067-.8 2.293-.8 3.68 0 1.467.427 2.627 1.28 3.48.88.853 2.094 1.28 3.64 1.28zm38.533-16.68l-3.64 18.16c-.8 4-2.307 6.907-4.52 8.72-2.187 1.813-5.12 2.72-8.8 2.72-2.054 0-3.934-.253-5.64-.76-1.707-.507-3.16-1.24-4.36-2.2l2.92-4.48c.88.747 1.96 1.333 3.24 1.76 1.28.427 2.626.64 4.04.64 2.026 0 3.546-.453 4.56-1.36 1.04-.907 1.76-2.333 2.16-4.28l.16-.68c-1.84 1.493-4.04 2.24-6.6 2.24-2.347 0-4.227-.627-5.64-1.88-1.387-1.28-2.08-3.08-2.08-5.4 0-.853.093-1.733.28-2.64l2.08-10.56h6.24l-2.04 10.16a7.358 7.358 0 00-.16 1.52c0 1.12.293 1.973.88 2.56.613.587 1.52.88 2.72.88 1.573 0 2.88-.467 3.92-1.4 1.04-.933 1.746-2.32 2.12-4.16l1.92-9.56h6.24zm9.219 2.56a8.115 8.115 0 013.36-2.2c1.333-.453 2.893-.68 4.68-.68l-1.12 5.76a27.07 27.07 0 00-1.44-.08c-1.894 0-3.414.467-4.56 1.4-1.12.933-1.88 2.387-2.28 4.36L79.352 32h-6.24l4.28-21.52h5.92l-.52 2.56zm9.67-2.56h6.2L94.382 32h-6.2l4.28-21.52zm4.16-3c-1.067 0-1.947-.307-2.64-.92-.667-.64-1-1.413-1-2.32 0-1.067.373-1.947 1.12-2.64.773-.72 1.773-1.08 3-1.08 1.093 0 1.973.307 2.64.92.693.587 1.04 1.32 1.04 2.2 0 1.147-.387 2.08-1.16 2.8-.773.693-1.773 1.04-3 1.04zm24.952 16.96c-.08.32-.12.627-.12.92 0 .667.187 1.173.56 1.52.4.32.947.48 1.64.48.72 0 1.32-.107 1.8-.32l-.64 4.76c-1.067.347-2.2.52-3.4.52-1.52 0-2.787-.307-3.8-.92-.987-.613-1.667-1.493-2.04-2.64a9.22 9.22 0 01-3.28 2.64c-1.28.613-2.72.92-4.32.92-1.68 0-3.227-.387-4.64-1.16-1.413-.773-2.547-1.88-3.4-3.32-.827-1.467-1.24-3.187-1.24-5.16 0-2.373.52-4.507 1.56-6.4 1.067-1.92 2.507-3.413 4.32-4.48 1.813-1.093 3.813-1.64 6-1.64 1.6 0 3 .267 4.2.8a6.33 6.33 0 012.84 2.44l2.12-11.08h6.24l-4.4 22.12zm-11.68 2.72c1.227 0 2.32-.293 3.28-.88.96-.613 1.707-1.453 2.24-2.52.533-1.067.8-2.293.8-3.68 0-1.467-.44-2.627-1.32-3.48-.853-.853-2.053-1.28-3.6-1.28-1.227 0-2.32.307-3.28.92-.96.587-1.707 1.413-2.24 2.48-.533 1.067-.8 2.293-.8 3.68 0 1.467.427 2.627 1.28 3.48.88.853 2.093 1.28 3.64 1.28zm28.736-17c3.067 0 5.533.84 7.4 2.52 1.893 1.68 2.84 4.08 2.84 7.2 0 .533-.013.933-.04 1.2l-16.6 3.04c.56 2.133 2.36 3.2 5.4 3.2 1.12 0 2.173-.16 3.16-.48a7.256 7.256 0 002.56-1.52l2.6 4.12c-1.2.96-2.573 1.68-4.12 2.16a16.37 16.37 0 01-4.88.72c-2.213 0-4.16-.387-5.84-1.16-1.653-.8-2.933-1.933-3.84-3.4-.88-1.467-1.32-3.16-1.32-5.08 0-2.373.533-4.507 1.6-6.4a11.316 11.316 0 014.48-4.48c1.947-1.093 4.147-1.64 6.6-1.64zm-.28 4.68c-1.68 0-3.053.507-4.12 1.52-1.04 1.013-1.72 2.373-2.04 4.08l10.88-2c-.16-1.147-.667-2.027-1.52-2.64-.827-.64-1.893-.96-3.2-.96z" fill="#435A73"/></svg>